<svg xmlns="http://www.w3.org/2000/svg" width="46" height="20" viewBox="43.795 13.7 46 20"><defs><filter id="a" width="1.015" height="1.077" x="-.005" y="-.014" style="color-interpolation-filters:sRGB"><feFlood flood-color="#000" flood-opacity="1" result="flood"/><feGaussianBlur in="SourceGraphic" result="blur"/><feOffset dx=".2" dy=".7" in="blur" result="offset"/><feComposite in="flood" in2="offset" operator="in" result="comp1"/><feComposite in="SourceGraphic" in2="comp1" result="comp2"/></filter></defs><g style="filter:url(#a); fill:#fff;stroke:#000;stroke-width:.4" transform="translate(-.119 .504)">
    <path
      d="M82.397 21.549s-.523-1.718-3.304-1.456c-4.35.392-3.958 5.376-3.958 5.376 0 4.274 3.584 4.405 3.584 4.405 3.304.392 3.808-1.624 3.808-1.624.28 1.885 2.128 1.755 2.128 1.755s2.95.392 2.67-5.283c0 0-.02-4.76-2.8-4.76-1.7 0-2.128 1.587-2.128 1.587zm-.822 2.93c.907 0 1.028 1.475 0 1.475-.41 0-.71-.168-.746-.69-.038-.393.317-.785.746-.785z" />
    <path
      d="M70.472 19.533s.149-3.976-3.006-3.846c-1.922.075-2.296 1.624-2.557 2.632 0 0-1.008 5.022.037 9.166 0 0 .598 2.314 2.483 2.445 3.435.224 3.005-4.293 3.005-4.293s2.054 6.048 5.507 3.696c2.11-1.438.224-4.835-1.83-6.142 0 0 2.651-2.594.822-4.517 0 0-2.147-2.296-4.461.859z" />
    <path
      d="M66 27.344c.355-.69.579-1.587.579-2.744 0 0 0-4.723-4.816-4.723 0 0-5.45-.523-5.45 5.245 0 0 0 4.742 5.45 4.742 0 0 .877 0 1.885-.41 0 0 1.568-.654 2.352-2.11z" />
    <path
      d="M57.16 19.74s-.672-3.529-5.059-3.547c0 0-4.293-.41-5.357 3.677 0 0-1.12 3.136.13 7.467 0 0 .654 2.557 3.155 2.24 0 0 2.576-.224 2.072-3.454 0 0 2.147 5.264 5.021 2.968 0 0 2.744-2.053-.877-5.133 0 0 1.4-1.55.915-4.219zM52.1 21.026c.467 0 .728.392.728.784 0 .43-.317.691-.728.691-.41 0-.71-.168-.747-.69-.037-.393.318-.785.747-.785z" />
  </g></svg>
