<?xml version="1.0" encoding="UTF-8" standalone="no"?><!DOCTYPE svg PUBLIC "-//W3C//DTD SVG 1.1//EN" "http://www.w3.org/Graphics/SVG/1.1/DTD/svg11.dtd"><svg width="100%" height="100%" viewBox="0 0 140 80" version="1.1" xmlns="http://www.w3.org/2000/svg" xmlns:xlink="http://www.w3.org/1999/xlink" xml:space="preserve" xmlns:serif="http://www.serif.com/" style="fill-rule:evenodd;clip-rule:evenodd;stroke-linejoin:round;stroke-miterlimit:2;"><path d="M71.332,8.813c-1.288,-0.412 -2.629,-0.672 -3.942,-0.717c-5.548,-0.216 -11.503,1.437 -16.502,3.183c-8.395,2.99 -16.216,7.575 -23.454,12.737c-5.255,3.667 -10.312,7.744 -15.126,12.007c-0.71,0.674 0.321,1.337 0.92,1.477c1.422,0.321 3.323,1.524 4.025,2.449c1.386,1.706 1.791,3.686 2.258,5.585c0.34,1.481 0.475,3.06 0.61,4.64c0.222,2.803 0.116,5.867 0.143,8.841c0.018,2.902 0.046,5.876 0.421,8.731c0.022,0.724 0.106,1.366 0.271,2.071c0.128,0.419 0.274,0.98 0.535,1.309c0.271,0.4 0.656,0.568 1.103,0.654c0.375,0.096 1.089,0.002 1.328,-0.392c0.998,-1.801 1.316,-3.804 2.091,-5.648c0.598,-1.531 1.276,-3 2.017,-4.549c1.524,-3.323 3.263,-6.674 5.001,-10.025c3.425,-6.549 7.145,-13.065 10.712,-19.633c0.583,-1.093 1.094,-2.177 1.596,-3.332c1.013,-2.239 1.447,-2.804 1.447,-2.804c0.391,-0.342 0.111,-0.814 -0.202,-0.99c-0.475,-0.301 -1.056,-0.297 -1.456,-0.027c-0.4,0.27 -0.63,0.736 -0.868,1.131l-0.856,1.782c-0.52,1.012 -1.032,2.096 -1.624,3.118c-1.776,3.065 -3.471,6.193 -5.238,9.329c-3.701,6.659 -7.473,13.326 -10.779,20.223l-2.141,4.711c-0.168,0.385 -0.326,0.842 -0.484,1.298c-0.041,-0.866 -0.01,-1.741 -0.234,-6.214l0.036,-4.144c0.016,-3.198 -0.12,-6.448 -0.675,-9.57c-0.508,-2.765 -1.463,-5.617 -3.477,-7.677c-0.925,-0.967 -1.957,-1.631 -3.174,-2.052c6.449,-5.639 13.24,-10.888 20.49,-15.398c3.692,-2.3 7.555,-4.405 11.536,-6.162c1.996,-0.843 4,-1.614 6.014,-2.314c1.881,-0.61 3.771,-1.149 5.884,-1.644c10.863,-2.443 18.34,0.86 13.089,9.537c-0.831,1.416 -1.823,2.709 -2.896,3.939c-0.682,0.888 -1.206,1.32 -3.176,3.466c-2.379,2.346 -4.829,4.701 -7.45,6.861c-3.083,2.51 -6.49,4.773 -9.872,6.669c-4.263,2.375 -8.644,4.403 -13.215,6.092c-0.419,0.128 -0.577,0.584 -0.307,0.985c2.177,1.093 6.341,2.943 8.736,4.59c1.211,0.93 2.485,1.779 3.82,2.548l5.845,3.59c1.658,1.016 3.308,1.962 4.895,2.988c3.345,2.248 4.77,3.15 5.659,3.832c0.323,0.248 0.056,0.428 0.264,0.909c0.361,0.534 1.264,0.778 1.897,0.623c0.562,-0.147 1.086,-0.579 0.993,-1.292c-0.15,-1.143 -3.781,-3.353 -8.523,-6.289c-1.982,-1.264 -3.954,-2.458 -5.926,-3.651c-1.659,-1.017 -3.45,-1.944 -5.047,-3.041c-1.112,-0.726 -2.162,-1.532 -3.193,-2.195c-1.273,-0.85 -2.547,-1.699 -3.863,-2.325c-0.395,-0.239 -0.86,-0.468 -1.317,-0.626c6.895,-2.793 13.554,-6.282 19.501,-10.766c2.906,-2.197 5.571,-4.58 8.145,-7.097c2.246,-2.255 4.544,-4.663 6.386,-7.228c1.727,-2.333 3.307,-5.227 2.985,-8.235c-0.393,-2.998 -2.906,-4.992 -5.636,-5.868Z" style="fill:#333943;fill-rule:nonzero;"/><path d="M83.325,35.995c-0.515,0.503 -1.12,0.873 -1.716,1.314l-2.01,1.281c-1.558,0.858 -3.125,1.645 -4.791,2.227l-0.143,0.018l-0.009,-0.071c0.287,-1.127 0.423,-2.307 -0.422,-3.212c-0.684,-0.782 -1.863,-0.918 -2.726,-0.296c-0.524,0.432 -0.939,1.14 -1.069,1.81c-0.158,0.457 -0.083,1.028 -0.027,1.456c0.084,0.643 0.311,1.266 0.805,1.71c0.081,0.062 0.162,0.124 0.243,0.186c-0.115,0.233 -0.301,0.475 -0.478,0.789c-0.582,1.093 -1.317,2.133 -1.981,3.165c-0.806,1.049 -1.488,1.938 -2.555,2.659c-1.468,0.991 -1.527,-0.017 -1.491,-1.402c0.212,-1.698 0.944,-3.319 1.774,-4.735c0.831,-1.416 1.752,-2.699 2.834,-3.858c0.643,-0.084 0.825,-0.907 0.198,-1.26c-0.394,-0.239 -1.056,-0.297 -1.456,-0.027c-1.582,1.224 -2.822,2.839 -3.83,4.569c-0.874,1.64 -1.648,3.484 -1.833,5.397c-0.068,0.59 -0.055,1.241 0.163,1.794c0.237,0.695 0.73,1.138 1.348,1.42c1.308,0.555 2.698,0.082 3.846,-0.577c1.219,-0.668 2.159,-1.808 2.956,-2.93c0.673,-0.959 1.274,-1.91 1.866,-2.932c0.363,-0.555 0.654,-1.102 0.945,-1.649c0.848,-0.183 1.748,-0.519 2.381,-0.675c1.666,-0.582 3.233,-1.369 4.719,-2.217c1.486,-0.849 2.963,-1.769 4.108,-3.009c0.763,-0.826 -1.063,-1.458 -1.649,-0.945Z" style="fill:#333943;fill-rule:nonzero;"/><path d="M105.962,34.185c-0.476,-0.301 -1.18,-0.135 -1.5,0.197c-2.313,2.845 -5.101,5.39 -7.989,7.73c-1.058,0.792 -2.107,1.656 -3.245,2.386c-1.611,1.011 -3.292,2.03 -5.12,2.488c-2.185,0.505 -2.981,-1.134 -3.535,-2.586c1.257,-0.383 2.458,-1.194 3.516,-1.986c1.662,-1.163 4.736,-3.745 4.741,-5.924c0.089,-1.537 -1.809,-2.159 -3.103,-2.062c-1.356,0.178 -2.495,0.909 -3.525,1.915c-0.781,0.684 -1.401,1.492 -2.084,2.38c1.645,-4.065 3.514,-8.086 5.625,-11.922c1.342,-2.5 2.917,-4.885 4.491,-7.27c0.673,-0.96 2.211,-3.631 3.12,-3.895c0.49,-0.137 0.049,-0.733 -0.193,-0.919c-0.556,-0.363 -1.332,-0.188 -1.794,0.163c-0.463,0.351 -0.763,0.826 -3.172,4.047c-0.912,1.354 -1.823,2.709 -2.654,4.125c-1.079,1.739 -2.148,3.55 -3.075,5.341c-3.248,6.236 -5.816,12.673 -7.999,19.278c-0.325,0.841 -0.66,1.611 -0.833,2.505c-0.149,0.528 0.622,0.863 0.997,0.959c0.447,0.086 1.09,0.002 1.238,-0.526c0.254,-0.832 0.579,-1.674 0.843,-2.434c0.387,-0.923 0.917,-1.864 1.466,-2.662c0.114,-0.233 0.238,-0.394 0.362,-0.556c0.209,0.481 0.417,0.962 0.626,1.443c0.199,0.41 0.73,1.139 1.134,1.449c1.391,1.197 3.195,1.105 4.809,0.676c1.89,-0.539 3.643,-1.568 5.253,-2.578c1.21,-0.74 2.348,-1.47 3.397,-2.334c3.226,-2.529 6.21,-5.245 8.772,-8.413c0.372,-0.485 -0.265,-0.91 -0.569,-1.015Zm-21.05,7.266c0.602,-0.951 1.274,-1.91 1.957,-2.799c0.744,-0.969 1.779,-2.484 2.922,-2.634c0.847,-0.184 0.817,0.691 0.587,1.157c-0.291,0.547 -0.725,1.112 -1.097,1.596c-0.825,0.907 -1.678,1.6 -2.603,2.303c-0.657,0.522 -1.324,0.972 -2.063,1.432l-0.481,0.209c0.301,-0.475 0.54,-0.87 0.778,-1.264Z" style="fill:#333943;fill-rule:nonzero;"/><path d="M127.092,31.411c-0.385,-0.167 -0.965,-0.164 -1.427,0.188c-2.652,3.035 -5.161,6.051 -8.415,8.366c-1.396,0.982 -2.516,1.855 -3.887,2.471c-1.648,0.725 -2.869,-0.277 -2.417,-2.37c0.111,-0.813 0.417,-1.797 0.733,-2.71c0.096,-0.376 0.335,-0.77 0.502,-1.155c0.521,-1.013 2.452,-3.445 2.359,-4.159l-0.01,-0.071c-0.103,-0.785 -1.81,-1.069 -2.235,-0.433c-0.344,0.699 -0.912,1.354 -1.327,2.063l-0.062,0.08l-1.951,2.29l-3.559,4.969c-1.088,1.668 -2.223,2.979 -3.619,3.961c-0.062,0.081 -0.134,0.09 -0.205,0.1c-0.289,-0.543 -0.231,-1.205 -0.092,-1.804c0.251,-1.413 1.038,-2.605 1.764,-3.717c0.716,-1.183 1.665,-2.252 2.428,-3.078c0.905,-0.845 1.892,-1.628 2.968,-2.278c0.205,-0.1 0.686,-0.308 1,-0.131c0.456,0.158 1.027,0.083 1.176,-0.445c0.254,-0.832 -0.74,-1.21 -1.41,-1.34c-0.581,0.004 -1.276,0.24 -1.757,0.449c-1.434,0.696 -2.572,1.426 -3.54,2.352c-1.358,1.268 -2.475,2.722 -3.429,4.299c-0.822,1.488 -1.705,3.056 -1.542,4.85c0.103,0.785 0.501,1.605 1.209,2.02c1.012,0.521 2.012,0.389 2.821,-0.08c0.748,-0.389 1.344,-0.83 1.849,-1.405c0.649,-0.593 1.179,-1.534 1.808,-2.27c0.692,-0.817 1.321,-1.553 1.861,-2.423c-0.155,1.037 -0.148,2.198 0.536,2.98c1.134,1.448 3.375,1.372 5.061,0.933c1.042,-0.355 1.985,-0.914 4.635,-2.86c0.862,-0.621 1.377,-1.125 2.488,-2.069c2.416,-2.06 4.305,-4.269 6.389,-6.648c0.319,-0.333 -0.327,-0.829 -0.703,-0.925Z" style="fill:#333943;fill-rule:nonzero;"/><path d="M70.332,7.813c-1.288,-0.412 -2.629,-0.672 -3.942,-0.717c-5.548,-0.216 -11.503,1.437 -16.502,3.183c-8.395,2.99 -16.216,7.575 -23.454,12.737c-5.255,3.667 -10.312,7.744 -15.126,12.007c-0.71,0.674 0.321,1.337 0.92,1.477c1.422,0.321 3.323,1.524 4.025,2.449c1.386,1.706 1.791,3.686 2.258,5.585c0.34,1.481 0.475,3.06 0.61,4.64c0.222,2.803 0.116,5.867 0.143,8.841c0.018,2.902 0.046,5.876 0.421,8.731c0.022,0.724 0.106,1.366 0.271,2.071c0.128,0.419 0.274,0.98 0.535,1.309c0.271,0.4 0.656,0.568 1.103,0.654c0.375,0.096 1.089,0.002 1.328,-0.392c0.998,-1.801 1.316,-3.804 2.091,-5.648c0.598,-1.531 1.276,-3 2.017,-4.549c1.524,-3.323 3.263,-6.674 5.001,-10.025c3.425,-6.549 7.145,-13.065 10.712,-19.633c0.583,-1.093 1.094,-2.177 1.596,-3.332c1.013,-2.239 1.447,-2.804 1.447,-2.804c0.391,-0.342 0.111,-0.814 -0.202,-0.99c-0.475,-0.301 -1.056,-0.297 -1.456,-0.027c-0.4,0.27 -0.63,0.736 -0.868,1.131l-0.856,1.782c-0.52,1.012 -1.032,2.096 -1.624,3.118c-1.776,3.065 -3.471,6.193 -5.238,9.329c-3.701,6.659 -7.473,13.326 -10.779,20.223l-2.141,4.711c-0.168,0.385 -0.326,0.842 -0.484,1.298c-0.041,-0.866 -0.01,-1.741 -0.234,-6.214l0.036,-4.144c0.016,-3.198 -0.12,-6.448 -0.675,-9.57c-0.508,-2.765 -1.463,-5.617 -3.477,-7.677c-0.925,-0.967 -1.957,-1.631 -3.174,-2.052c6.449,-5.639 13.24,-10.888 20.49,-15.398c3.692,-2.3 7.555,-4.405 11.536,-6.162c1.996,-0.843 4,-1.614 6.014,-2.314c1.881,-0.61 3.771,-1.149 5.884,-1.644c10.863,-2.443 18.34,0.86 13.089,9.537c-0.831,1.416 -1.823,2.709 -2.896,3.939c-0.682,0.888 -1.206,1.32 -3.176,3.466c-2.379,2.346 -4.829,4.701 -7.45,6.861c-3.083,2.51 -6.49,4.773 -9.872,6.669c-4.263,2.375 -8.644,4.403 -13.215,6.092c-0.419,0.128 -0.577,0.584 -0.307,0.985c2.177,1.093 6.341,2.943 8.736,4.59c1.211,0.93 2.485,1.779 3.82,2.548l5.845,3.59c1.658,1.016 3.308,1.962 4.895,2.988c3.345,2.248 4.77,3.15 5.659,3.832c0.323,0.248 0.056,0.428 0.264,0.909c0.361,0.534 1.264,0.778 1.897,0.623c0.562,-0.147 1.086,-0.579 0.993,-1.292c-0.15,-1.143 -3.781,-3.353 -8.523,-6.289c-1.982,-1.264 -3.954,-2.458 -5.926,-3.651c-1.659,-1.017 -3.45,-1.944 -5.047,-3.041c-1.112,-0.726 -2.162,-1.532 -3.193,-2.195c-1.273,-0.85 -2.547,-1.699 -3.863,-2.325c-0.395,-0.239 -0.86,-0.468 -1.317,-0.626c6.895,-2.793 13.554,-6.282 19.501,-10.766c2.906,-2.197 5.571,-4.58 8.145,-7.097c2.246,-2.255 4.544,-4.663 6.386,-7.228c1.727,-2.333 3.307,-5.227 2.985,-8.235c-0.393,-2.998 -2.906,-4.992 -5.636,-5.868Z" style="fill:#a34f98;fill-rule:nonzero;"/><path d="M82.325,34.995c-0.515,0.503 -1.12,0.873 -1.716,1.314l-2.01,1.281c-1.558,0.858 -3.125,1.645 -4.791,2.227l-0.143,0.018l-0.009,-0.071c0.287,-1.127 0.423,-2.307 -0.422,-3.212c-0.684,-0.782 -1.863,-0.918 -2.726,-0.296c-0.524,0.432 -0.939,1.14 -1.069,1.81c-0.158,0.457 -0.083,1.028 -0.027,1.456c0.084,0.643 0.311,1.266 0.805,1.71c0.081,0.062 0.162,0.124 0.243,0.186c-0.115,0.233 -0.301,0.475 -0.478,0.789c-0.582,1.093 -1.317,2.133 -1.981,3.165c-0.806,1.049 -1.488,1.938 -2.555,2.659c-1.468,0.991 -1.527,-0.017 -1.491,-1.402c0.212,-1.698 0.944,-3.319 1.774,-4.735c0.831,-1.416 1.752,-2.699 2.834,-3.858c0.643,-0.084 0.825,-0.907 0.198,-1.26c-0.394,-0.239 -1.056,-0.297 -1.456,-0.027c-1.582,1.224 -2.822,2.839 -3.83,4.569c-0.874,1.64 -1.648,3.484 -1.833,5.397c-0.068,0.59 -0.055,1.241 0.163,1.794c0.237,0.695 0.73,1.138 1.348,1.42c1.308,0.555 2.698,0.082 3.846,-0.577c1.219,-0.668 2.159,-1.808 2.956,-2.93c0.673,-0.959 1.274,-1.91 1.866,-2.932c0.363,-0.555 0.654,-1.102 0.945,-1.649c0.848,-0.183 1.748,-0.519 2.381,-0.675c1.666,-0.582 3.233,-1.369 4.719,-2.217c1.486,-0.849 2.963,-1.769 4.108,-3.009c0.763,-0.826 -1.063,-1.458 -1.649,-0.945Z" style="fill:#a34f98;fill-rule:nonzero;"/><path d="M104.962,33.185c-0.476,-0.301 -1.18,-0.135 -1.5,0.197c-2.313,2.845 -5.101,5.39 -7.989,7.73c-1.058,0.792 -2.107,1.656 -3.245,2.386c-1.611,1.011 -3.292,2.03 -5.12,2.488c-2.185,0.505 -2.981,-1.134 -3.535,-2.586c1.257,-0.383 2.458,-1.194 3.516,-1.986c1.662,-1.163 4.736,-3.745 4.741,-5.924c0.089,-1.537 -1.809,-2.159 -3.103,-2.062c-1.356,0.178 -2.495,0.909 -3.525,1.915c-0.781,0.684 -1.401,1.492 -2.084,2.38c1.645,-4.065 3.514,-8.086 5.625,-11.922c1.342,-2.5 2.917,-4.885 4.491,-7.27c0.673,-0.96 2.211,-3.631 3.12,-3.895c0.49,-0.137 0.049,-0.733 -0.193,-0.919c-0.556,-0.363 -1.332,-0.188 -1.794,0.163c-0.463,0.351 -0.763,0.826 -3.172,4.047c-0.912,1.354 -1.823,2.709 -2.654,4.125c-1.079,1.739 -2.148,3.55 -3.075,5.341c-3.248,6.236 -5.816,12.673 -7.999,19.278c-0.325,0.841 -0.66,1.611 -0.833,2.505c-0.149,0.528 0.622,0.863 0.997,0.959c0.447,0.086 1.09,0.002 1.238,-0.526c0.254,-0.832 0.579,-1.674 0.843,-2.434c0.387,-0.923 0.917,-1.864 1.466,-2.662c0.114,-0.233 0.238,-0.394 0.362,-0.556c0.209,0.481 0.417,0.962 0.626,1.443c0.199,0.41 0.73,1.139 1.134,1.449c1.391,1.197 3.195,1.105 4.809,0.676c1.89,-0.539 3.643,-1.568 5.253,-2.578c1.21,-0.74 2.348,-1.47 3.397,-2.334c3.226,-2.529 6.21,-5.245 8.772,-8.413c0.372,-0.485 -0.265,-0.91 -0.569,-1.015Zm-21.05,7.266c0.602,-0.951 1.274,-1.91 1.957,-2.799c0.744,-0.969 1.779,-2.484 2.922,-2.634c0.847,-0.184 0.817,0.691 0.587,1.157c-0.291,0.547 -0.725,1.112 -1.097,1.596c-0.825,0.907 -1.678,1.6 -2.603,2.303c-0.657,0.522 -1.324,0.972 -2.063,1.432l-0.481,0.209c0.301,-0.475 0.54,-0.87 0.778,-1.264Z" style="fill:#a34f98;fill-rule:nonzero;"/><path d="M126.092,30.411c-0.385,-0.167 -0.965,-0.164 -1.427,0.188c-2.652,3.035 -5.161,6.051 -8.415,8.366c-1.396,0.982 -2.516,1.855 -3.887,2.471c-1.648,0.725 -2.869,-0.277 -2.417,-2.37c0.111,-0.813 0.417,-1.797 0.733,-2.71c0.096,-0.376 0.335,-0.77 0.502,-1.155c0.521,-1.013 2.452,-3.445 2.359,-4.159l-0.01,-0.071c-0.103,-0.785 -1.81,-1.069 -2.235,-0.433c-0.344,0.699 -0.912,1.354 -1.327,2.063l-0.062,0.08l-1.951,2.29l-3.559,4.969c-1.088,1.668 -2.223,2.979 -3.619,3.961c-0.062,0.081 -0.134,0.09 -0.205,0.1c-0.289,-0.543 -0.231,-1.205 -0.092,-1.804c0.251,-1.413 1.038,-2.605 1.764,-3.717c0.716,-1.183 1.665,-2.252 2.428,-3.078c0.905,-0.845 1.892,-1.628 2.968,-2.278c0.205,-0.1 0.686,-0.308 1,-0.131c0.456,0.158 1.027,0.083 1.176,-0.445c0.254,-0.832 -0.74,-1.21 -1.41,-1.34c-0.581,0.004 -1.276,0.24 -1.757,0.449c-1.434,0.696 -2.572,1.426 -3.54,2.352c-1.358,1.268 -2.475,2.722 -3.429,4.299c-0.822,1.488 -1.705,3.056 -1.542,4.85c0.103,0.785 0.501,1.605 1.209,2.02c1.012,0.521 2.012,0.389 2.821,-0.08c0.748,-0.389 1.344,-0.83 1.849,-1.405c0.649,-0.593 1.179,-1.534 1.808,-2.27c0.692,-0.817 1.321,-1.553 1.861,-2.423c-0.155,1.037 -0.148,2.198 0.536,2.98c1.134,1.448 3.375,1.372 5.061,0.933c1.042,-0.355 1.985,-0.914 4.635,-2.86c0.862,-0.621 1.377,-1.125 2.488,-2.069c2.416,-2.06 4.305,-4.269 6.389,-6.648c0.319,-0.333 -0.327,-0.829 -0.703,-0.925Z" style="fill:#a34f98;fill-rule:nonzero;"/></svg>